<?xml version="1.0" encoding="utf-8"?>
<!-- Generator: Adobe Illustrator 22.0.1, SVG Export Plug-In . SVG Version: 6.00 Build 0)  -->
<svg version="1.1" id="圖層_1" xmlns="http://www.w3.org/2000/svg" xmlns:xlink="http://www.w3.org/1999/xlink" x="0px" y="0px"
	 viewBox="0 0 128 128" style="enable-background:new 0 0 128 128;" xml:space="preserve">
<style type="text/css">
	.st0{fill:#FFFFFF;}
	.st1{fill:#D08181;}
	.st2{fill:#283C43;}
</style>
<path class="st0" d="M29.5,0h68.9C114.8,0,128,13.2,128,29.5v68.9c0,16.3-13.2,29.5-29.5,29.5H29.5C13.2,128,0,114.8,0,98.5V29.5
	C0,13.2,13.2,0,29.5,0z"/>
<path class="st1" d="M90,23.3h10.6c4.3,0,7.8,3.5,7.8,7.8v10.6c0,4.3-3.5,7.8-7.8,7.8H90c-4.3,0-7.8-3.5-7.8-7.8V31.1
	C82.2,26.8,85.7,23.3,90,23.3z"/>
<path class="st2" d="M38.2,43.5H43l2.4,5.9l4.8-5.9h3.6c3.8,2.9,4.8,17,4.8,23.8h-25C31.5,61.6,35.8,49.1,38.2,43.5z"/>
<circle class="st0" cx="41.8" cy="56.6" r="2.4"/>
<path d="M47.4,13.8c0.7,0.2,1.4,0.3,2,0.5c4.2,1.3,6.9,4.1,8.3,8.3c0.1,0.2,0.2,0.5,0.2,0.7c0.6,0.1,1.1,0.2,1.6,0.4
	c2.1,0.7,3.4,2.8,3.2,5.1c-0.2,2.1-2,3.9-4.2,4.2c-0.6,0.1-0.8,0.3-1,0.8c-1.7,5-6.3,8.3-11.5,8.3c-5.1,0-9.7-3.3-11.5-8.3
	c-0.2-0.5-0.4-0.7-1-0.8c-2.4-0.2-4.2-2.2-4.3-4.6c-0.1-2.3,1.6-4.4,3.9-4.8c0.8-0.1,1-0.5,1.3-1.2c1.6-4.6,4.8-7.4,9.6-8.4
	c0.2,0,0.4-0.1,0.5-0.2C45.5,13.8,46.4,13.8,47.4,13.8z M42.8,23.3c-0.1,0.2-0.2,0.4-0.4,0.6c-2.2,2.2-4.8,3.1-7.9,2.6
	c-0.8-0.1-1.6,0.1-1.9,0.8c-0.2,0.6-0.2,1.4,0.1,2c0.4,0.7,1.1,0.9,2,0.7c1.5-0.4,2,0,2.3,1.5c0.2,0.7,0.4,1.5,0.7,2.2
	c1.7,3.7,5.5,5.8,9.7,5.3c3.8-0.4,6.9-3.5,7.8-7.4c0.3-1.6,0.9-1.9,2.4-1.6c0.8,0.2,1.5,0,2-0.7c0.5-0.6,0.5-1.3,0.1-2
	c-0.5-0.7-1.1-1-2-0.8c-0.9,0.2-1.9,0.3-2.8,0.4C50.4,27,46.4,26,42.8,23.3z M54.9,23.8c-0.5-4-5.1-7.4-9.4-7.1
	c-4,0.3-8.2,3.8-8.1,6.7c1.6-0.4,2.7-1.2,3.6-2.5c1.1-1.7,1.6-1.7,3.2-0.4C47.2,23.2,50.9,24,54.9,23.8z"/>
<path d="M86.8,94.8c0,0.4,0,0.8,0,1.2c1.2,0.2,2.7-0.3,2.9,1.5c0.1,1-0.5,1.3-2.9,1.5c0,0.9,0,1.8,0,2.9c0.9,0,1.7,0,2.6,0
	c1,0,1.7,0.6,1.7,1.4c0,0.9-0.6,1.5-1.7,1.5c-0.8,0-1.6,0-2.4,0c0,0-0.1,0-0.2,0.1c0,1.4,0,2.7,0,4.2c2.3,0,4.7,0,7.1,0
	c0-19.5,0-38.9,0-58.5c-0.3,0-0.7-0.1-1-0.1c-1.8,0-3.5,0.1-5.2-0.1c-3.3-0.3-5.8-2.9-5.9-6.2c-0.1-5-0.1-9.9,0-14.9
	c0.1-3.5,2.9-6.2,6.3-6.2c3.9,0,7.8,0,11.6,0c1.1,0,1.8,0.6,1.8,1.4c0,0.9-0.7,1.5-1.8,1.5c-3.7,0-7.3,0-11,0c-2.7,0-4,1.3-4,4.1
	c0,4.5,0,9,0,13.5c0,2.7,1.3,4,4,4c4.5,0,9,0,13.5,0c2.4,0,3.8-1.4,3.8-3.8c0-4.6,0-9.3,0-13.9c0-1-0.3-1.9-1-2.7
	c-0.7-0.8-0.6-1.6,0.1-2.2c0.7-0.5,1.5-0.4,2.2,0.3c1.1,1.2,1.6,2.6,1.6,4.2c0,4.9,0.1,9.8,0,14.7c0,3.3-2.5,6-5.8,6.3
	c-1.7,0.2-3.4,0.1-5.1,0.1c-0.4,0-0.8,0-1.2,0c0,19.6,0,39,0,58.6c1,0,2.1,0,3.1,0c0.8,0,1.7,0,2.5,0c0.8,0.1,1.4,0.6,1.4,1.4
	c0,0.8-0.5,1.4-1.3,1.5c-0.3,0-0.6,0-0.9,0c-24.3,0-48.5,0-72.8,0c-0.2,0-0.5,0-0.7,0c-0.9-0.1-1.5-0.7-1.5-1.5
	c0-0.8,0.6-1.4,1.5-1.4c1.8,0,3.6,0,5.4,0c0.2,0,0.4,0,0.7,0C32.1,92.6,31.1,75.9,32,59c-0.4,0-1,0-1.7,0C28.1,59,26,59,23.8,58.8
	c-0.8-0.1-1.6-0.4-2.3-0.8c-1.2-0.7-1.8-1.8-1.8-3.2c0-2.4,0.9-4.4,2.9-5.8c2.1-1.5,4.5-2.2,6.9-2.5c1.8-0.2,3.5-0.3,5.3-0.4
	c0.5,0,0.8-0.2,1.1-0.7c1.5-3.6,1.1-3.1,4.7-3.1c0.4,0,0.8,0,1.1,0c0.8-0.1,1.5,0.3,1.9,1c0.7,1.1,1.5,2.2,2.4,3.5
	c0.8-1.1,1.5-2.1,2.2-3.2c0.6-1,1.3-1.4,2.4-1.3c0.9,0.1,1.8,0,2.8,0c0.9,0,1.7,0.3,1.9,1.2c0.4,1.5,1.5,2.3,2.6,3.2
	c3.7,2.7,6,6.4,7.6,10.6c2.5,6.6,3,13.3,0.9,20.1c-0.4,1.2-1,1.6-1.9,1.4c-0.9-0.3-1.2-1.1-0.9-2.3c2.6-8.9,1-17.1-4.5-24.6
	c-0.3-0.4-0.6-0.7-1-1c0.4,1.5,0.7,2.9,1,4.4c1.2,5.6,1.5,11.3,1.2,17C60,79.9,59.8,87.4,59.3,95c-0.3,4.4-1,8.8-1.6,13.2
	c-0.1,0.3-0.1,0.6-0.1,1c2.7,0,5.4,0,8.2,0c0-1.4,0-2.8,0-4.3c-0.9,0-1.8,0-2.7,0c-1.1,0-1.7-0.6-1.7-1.5c0-0.9,0.6-1.4,1.7-1.4
	c0.9,0,1.8,0,2.7,0c0-1,0-1.9,0-2.9c-1.1-0.3-3,0.4-3-1.6c0.1-1.9,1.8-1.2,3-1.4c0-0.4,0-0.8,0-1.3c-1.2-0.2-2.9,0.4-3-1.6
	c-0.1-1,0.6-1.3,2.9-1.4c0.2-0.8,0.5-1.6,1.6-1.6c0.9,0.1,1.3,0.7,1.4,1.6c5,0,9.9,0,14.9,0c0.2-0.8,0.5-1.5,1.5-1.6
	c1,0,1.4,0.7,1.6,1.6c1.2,0.2,2.6-0.3,2.9,1.5C89.8,94.1,89.2,94.4,86.8,94.8z M34.7,68.9c-0.8,5.7,1.5,36.7,3,40.3
	c0.7,0.2,0.9-0.1,1-0.8c0.2-2.8,0.4-5.6,0.6-8.3c0.1-1.1,0.8-1.6,1.7-1.5c0.8,0.1,1.3,0.8,1.2,1.8c-0.1,0.8-0.2,1.6-0.2,2.4
	c-0.2,2.1-0.3,4.3-0.5,6.4c3.1,0,6.1,0,9.2,0c0-0.5-0.1-0.9-0.1-1.3c-0.3-3.3-0.4-6.5-0.9-9.8c-0.9-6.9-2.1-13.7-3.1-20.6
	c-0.1-0.3-0.3-0.5-0.5-0.7c-0.2,0.2-0.4,0.5-0.5,0.7c-0.5,2.6-1,5.2-1.4,7.7c-0.5,2.9-0.9,5.9-1.3,8.8c-0.2,1-0.8,1.5-1.6,1.4
	c-0.9-0.1-1.4-0.8-1.3-1.8c0-0.4,0.1-0.8,0.2-1.2c1-5.7,1.9-11.5,2.9-17.2c0.2-1,0.7-1.4,1.7-1.4c0.8,0,1.7,0,2.5,0
	c1.1,0,1.6,0.4,1.9,1.5c2.3,10.9,3.7,21.9,4.4,33.1c0.1,0.9,0.3,1.1,1.2,0.7c2.3-13.3,2.7-26.7,2.9-40.2
	C49.8,67.9,42.3,67.9,34.7,68.9z M35.9,55.7c0.9,0.1,1.5,0.1,2.1-0.7c1.3-1.9,4.1-2.3,5.5-0.5c1.1,1.3,2.1,2.6,3.5,3.5
	c0.6,0.4,0.6,1.4,0.1,2c-0.6,0.6-1.3,0.7-2,0.2c-0.3-0.2-0.6-0.4-0.9-0.6c-2.2,2.1-4.7,2.2-6.3,0.2c-0.9-1.1-1.2-1.2-2.8-0.8
	c-0.2,2.3-0.4,4.6-0.7,7c7.8-0.9,15.4-0.9,23-0.1c0-0.7,0-1.2,0-1.7c-0.4-6.2-1.8-12.3-4.1-18c-0.2-0.4-0.5-0.9-0.8-0.9
	c-0.8,0-1.7-0.5-2.3,0.5c-0.9,1.4-1.9,2.8-2.8,4.1c-0.8,1.2-1.9,1.2-2.7,0c-0.8-1.2-1.7-2.4-2.5-3.6c-0.7-1-1.7-1.4-2.8-1.1
	c-0.2,0.1-0.3,0.2-0.4,0.4C37.6,48.8,36.6,52.2,35.9,55.7z M68.9,109.2c5.1,0,10,0,14.9,0c0-1.5,0-2.9,0-4.2c-5,0-10,0-14.9,0
	C68.9,106.4,68.9,107.8,68.9,109.2z M34.5,49c-0.9,0.1-1.7,0-2.4,0.1c-2.1,0.4-4.2,0.8-6.3,1.4c-1.3,0.4-2.4,1.4-2.8,2.8
	c-0.6,1.7-0.2,2.4,1.5,2.5c2.6,0.2,5.2,0.1,7.8,0.1c0.2,0,0.6-0.4,0.7-0.7c0.5-1.8,1-3.6,1.5-5.5C34.4,49.6,34.4,49.4,34.5,49z
	 M68.9,101.9c5,0,10,0,14.9,0c0-1,0-1.9,0-2.8c-5,0-9.9,0-14.9,0C68.9,100,68.9,100.9,68.9,101.9z M83.8,94.7c-5,0-10,0-14.9,0
	c0,0.5,0,0.8,0,1.3c5,0,10,0,14.9,0C83.8,95.6,83.8,95.2,83.8,94.7z M41,58.6c0.4-0.6,0.9-1,0.9-1.3c0-0.3-0.5-0.8-0.8-0.9
	c-0.6-0.2-1,0.3-0.9,0.9C40.1,57.7,40.5,58,41,58.6z"/>
<path d="M43.6,32.6c0,0.4,0,0.7-0.1,1.1c-0.2,0.8-0.6,1.3-1.4,1.3c-0.8,0-1.3-0.5-1.4-1.3c-0.1-0.7-0.1-1.5,0-2.3
	c0.1-0.8,0.6-1.3,1.5-1.3c0.8,0,1.3,0.5,1.4,1.3C43.6,31.7,43.5,32.2,43.6,32.6C43.5,32.6,43.5,32.6,43.6,32.6z"/>
<path d="M49.5,32.5c0,0.4,0,0.7,0,1.1c-0.1,0.8-0.6,1.3-1.4,1.3c-0.8,0-1.3-0.4-1.5-1.2c-0.1-0.8-0.1-1.6,0-2.4
	c0.1-0.8,0.6-1.2,1.5-1.3c0.8,0,1.3,0.5,1.4,1.4C49.6,31.8,49.5,32.2,49.5,32.5z"/>
<path d="M95.6,31.4c1.6,0,2.8,0.4,3.7,1.3c0.9,0.9,1.4,2.1,1.4,3.8V38h-7.3c0,0.9,0.3,1.6,0.8,2c0.5,0.5,1.2,0.7,2,0.7
	c0.7,0,1.4-0.1,2-0.2c0.6-0.2,1.2-0.4,1.9-0.7v2.4c-0.6,0.3-1.2,0.5-1.8,0.6c-0.6,0.1-1.3,0.2-2.2,0.2c-1.1,0-2.1-0.2-3-0.6
	c-0.9-0.4-1.6-1.1-2-1.9c-0.5-0.9-0.7-1.9-0.7-3.3c0-1.3,0.2-2.4,0.7-3.3c0.5-0.9,1.1-1.5,1.9-2S94.5,31.4,95.6,31.4z M95.6,33.6
	c-0.6,0-1.1,0.2-1.5,0.6c-0.4,0.4-0.6,1-0.7,1.8h4.3c0-0.7-0.2-1.2-0.6-1.7C96.9,33.8,96.3,33.6,95.6,33.6z"/>
</svg>
