<svg width="19" height="18" viewBox="0 0 19 18" fill="none" xmlns="http://www.w3.org/2000/svg">
<path d="M13.7328 1.9375C14.2106 1.9371 14.6836 2.03209 15.1242 2.2169C15.5649 2.40171 15.9641 2.67262 16.2987 3.01375C16.988 3.71356 17.3744 4.65645 17.3744 5.63875C17.3744 6.62106 16.988 7.56394 16.2987 8.26375L9.49994 15.1478L2.70119 8.26375C2.01186 7.56394 1.62546 6.62106 1.62546 5.63875C1.62546 4.65645 2.01186 3.71356 2.70119 3.01375C3.03594 2.67286 3.43526 2.40209 3.87582 2.21726C4.31639 2.03242 4.78936 1.93722 5.26713 1.93722C5.7449 1.93722 6.21788 2.03242 6.65844 2.21726C7.099 2.40209 7.49832 2.67286 7.83307 3.01375L9.49994 4.72L11.1603 3.02688C11.4938 2.68168 11.8935 2.40729 12.3355 2.22011C12.7775 2.03293 13.2527 1.93681 13.7328 1.9375ZM13.7328 0.625002C13.0802 0.624449 12.4341 0.754188 11.8323 1.00661C11.2306 1.25904 10.6853 1.62907 10.2284 2.095L9.49994 2.83L8.77151 2.095C8.31407 1.62991 7.76862 1.26052 7.16697 1.00838C6.56531 0.756233 5.91948 0.626376 5.26713 0.626376C4.61478 0.626376 3.96895 0.756233 3.3673 1.00838C2.76564 1.26052 2.2202 1.62991 1.76276 2.095C0.832114 3.04238 0.310669 4.3173 0.310669 5.64531C0.310669 6.97333 0.832114 8.24825 1.76276 9.19563L9.49994 17.0313L17.2371 9.19563C18.1678 8.24825 18.6892 6.97333 18.6892 5.64531C18.6892 4.3173 18.1678 3.04238 17.2371 2.095C16.7798 1.62966 16.2344 1.26002 15.6328 1.00764C15.0311 0.755254 14.3852 0.625181 13.7328 0.625002Z" fill="#333333"/>
</svg>
