<?xml version="1.0" encoding="utf-8"?>
<!-- Generator: Adobe Illustrator 22.0.1, SVG Export Plug-In . SVG Version: 6.00 Build 0)  -->
<svg version="1.1" id="圖層_1" xmlns="http://www.w3.org/2000/svg" xmlns:xlink="http://www.w3.org/1999/xlink" x="0px" y="0px"
	 viewBox="0 0 128 128" style="enable-background:new 0 0 128 128;" xml:space="preserve">
<style type="text/css">
	.st0{fill:#355F8B;}
	.st1{fill:#FFFFFF;}
</style>
<g>
	<path class="st0" d="M90.7,128H37.3C16.8,128,0,111.2,0,90.7V37.3C0,16.8,16.8,0,37.3,0h53.5C111.2,0,128,16.8,128,37.3v53.5
		C128,111.2,111.2,128,90.7,128z"/>
	<g>
		<path class="st1" d="M76.8,70.2c-1.5,0-2.6,1.2-2.6,2.6v3.2c0,1.5,1.2,2.6,2.6,2.6H80c1.5,0,2.6-1.2,2.6-2.6v-3.2
			c0-1.5-1.2-2.6-2.6-2.6H76.8z"/>
		<path class="st1" d="M47.9,70.2c-1.5,0-2.6,1.2-2.6,2.6v3.2c0,1.5,1.2,2.6,2.6,2.6h3.2c1.5,0,2.6-1.2,2.6-2.6v-3.2
			c0-1.5-1.2-2.6-2.6-2.6H47.9z"/>
		<path class="st1" d="M103.4,45.3h-5.9V40c0-6.7-5.4-12.1-12.1-12.1H42.6c-6.7,0-12.1,5.4-12.1,12.1v5.2h-5.9
			c-1.3,0-2.4,1.1-2.4,2.4s1.1,2.4,2.4,2.4h5.9v34.2c0,5.3,4.3,9.7,9.7,9.7c0,0.1,0,0.1,0,0.2v3.2c0,1.5,1.2,2.6,2.6,2.6H46
			c1.5,0,2.6-1.2,2.6-2.6v-3.2c0-0.1,0-0.1,0-0.2h30.7c0,0.1,0,0.1,0,0.2v3.2c0,1.5,1.2,2.6,2.6,2.6h3.2c1.5,0,2.6-1.2,2.6-2.6v-3.2
			c0-0.1,0-0.1,0-0.2c5.3,0,9.7-4.4,9.7-9.7V69.6c0-1.3-1.1-2.4-2.4-2.4c-1.3,0-2.4,1.1-2.4,2.4v14.7c0,2.7-2.2,4.8-4.8,4.8H40.2
			c-2.7,0-4.8-2.2-4.8-4.8V60.6h59.7c1.3,0,2.4-1.1,2.4-2.4v-8.1h5.9c1.3,0,2.4-1.1,2.4-2.4S104.8,45.3,103.4,45.3z M92.7,55.8H35.3
			V40c0-4,3.3-7.3,7.3-7.3h42.8c4,0,7.3,3.3,7.3,7.3V55.8z"/>
	</g>
</g>
</svg>
